<?xml version="1.0" encoding="utf-8"?>
<!-- Generator: Adobe Illustrator 27.3.1, SVG Export Plug-In . SVG Version: 6.00 Build 0)  -->
<svg version="1.1" id="Layer_1" xmlns="http://www.w3.org/2000/svg" xmlns:xlink="http://www.w3.org/1999/xlink" x="0px" y="0px"
	 viewBox="0 0 50 50" style="enable-background:new 0 0 50 50;" xml:space="preserve">
<style type="text/css">
	.st0{fill:url(#SVGID_1_);}
	.st1{fill:url(#SVGID_00000063593595665018788040000012532092127501918895_);}
</style>
<g>
	<linearGradient id="SVGID_1_" gradientUnits="userSpaceOnUse" x1="5.5625" y1="16.7434" x2="44.4375" y2="16.7434">
		<stop  offset="0" style="stop-color:#3A85C6"/>
		<stop  offset="1" style="stop-color:#5CC9E1"/>
	</linearGradient>
	<path class="st0" d="M44.1,13.5c-0.6-0.9-1.3-1.5-2.3-2.1L28.4,3.7c-2.1-1.2-4.7-1.2-6.9,0L8.2,11.5c-1.1,0.6-2.5,1.7-2.6,3.2
		c-0.3,3.4,4.1,5.5,7,7c5,2.7,8.3,4.2,10.7,6.7c0.5,0.6,1.4,1.5,1.7,2.3c0.3-0.8,1.2-1.7,1.7-2.3c2.4-2.5,5.7-4.1,10.7-6.7
		c2.9-1.5,7.1-3.5,7-7C44.4,14.3,44.3,13.8,44.1,13.5z M25,22.9c-2.3,0-4.2-1.9-4.2-4.2s1.9-4.2,4.2-4.2c2.3,0,4.3,1.9,4.3,4.2
		S27.4,22.9,25,22.9z"/>
	
		<linearGradient id="SVGID_00000037668963583653995540000002081670144940522934_" gradientUnits="userSpaceOnUse" x1="29.7299" y1="11.8751" x2="16.8281" y2="50.762">
		<stop  offset="0" style="stop-color:#3DB54A"/>
		<stop  offset="1" style="stop-color:#AED136"/>
	</linearGradient>
	<path style="fill:url(#SVGID_00000037668963583653995540000002081670144940522934_);" d="M37.5,23.9c-6,3.2-10.1,4.6-11.8,9.8
		c-0.2,0.6-0.4,1.3-0.7,2.5c-0.2-1.2-0.5-1.9-0.7-2.5c-1.6-5.1-5.8-6.6-11.8-9.8C6.4,20.6,5,19,4.8,18.3v14.6c0,2.4,1.3,4.7,3.4,5.9
		l13.4,7.7c0.5,0.3,0.9,0.5,1.4,0.6c-0.2-0.6-0.4-1.2-0.6-1.8c-4.2-11.7-11.6-14.6-11.6-14.6s3.4,0.3,8.4,5.4
		c2.4,2.5,4.3,5.4,5.8,8.5c0,0,3.3-5.9,5.8-8.5c4.9-5.1,8.4-5.4,8.4-5.4s-7.4,2.9-11.6,14.6c-0.2,0.6-0.4,1.3-0.6,1.8
		c0.5-0.2,0.9-0.4,1.4-0.6l13.4-7.7c2.1-1.2,3.4-3.5,3.4-5.9V18.3C45,19,43.6,20.6,37.5,23.9z"/>
</g>
</svg>
