<?xml version="1.0" encoding="utf-8"?>
<!-- Generator: Adobe Illustrator 27.3.1, SVG Export Plug-In . SVG Version: 6.00 Build 0)  -->
<svg version="1.1" xmlns="http://www.w3.org/2000/svg" xmlns:xlink="http://www.w3.org/1999/xlink" x="0px" y="0px"
	 viewBox="0 0 481.5 154.5" style="enable-background:new 0 0 481.5 154.5;" xml:space="preserve">
<style type="text/css">
	.st0{fill:#768589;}
	.st1{font-family:'Inter-ExtraBold';}
	.st2{font-size:50px;}
	.st3{fill:url(#SVGID_1_);}
	.st4{fill:url(#SVGID_00000109015563504829857970000010225432701877030846_);}
</style>
<g id="BG">
	<g>
		<text transform="matrix(1 0 0 1 153.5904 73.436)" class="st0 st1 st2">HabbitForge</text>
		<g>
			<g>
				<path class="st0" d="M157.6,110.6l3.5-21.1h7.4c1.5,0,2.7,0.3,3.5,0.8c0.9,0.5,1.5,1.2,1.8,2.1c0.3,0.9,0.4,1.8,0.3,2.9
					c-0.1,0.9-0.4,1.6-0.8,2.2s-0.9,1.1-1.5,1.4c-0.6,0.4-1.2,0.6-1.9,0.8v0.1c0.7,0,1.3,0.3,1.9,0.7c0.6,0.4,1,1,1.4,1.8
					c0.3,0.8,0.4,1.7,0.2,2.9c-0.2,1.1-0.6,2-1.2,2.8c-0.6,0.8-1.5,1.5-2.6,2c-1.1,0.5-2.5,0.7-4.1,0.7H157.6z M160.7,108.3h4.9
					c1.7,0,2.9-0.3,3.7-1c0.8-0.7,1.3-1.5,1.5-2.5c0.1-0.7,0-1.3-0.2-1.9c-0.3-0.6-0.7-1-1.3-1.3s-1.3-0.5-2.2-0.5h-5.2L160.7,108.3
					z M162.2,98.8h4.6c0.7,0,1.5-0.2,2.1-0.5c0.7-0.3,1.2-0.7,1.7-1.3c0.5-0.6,0.8-1.2,0.9-2c0.2-0.9,0-1.6-0.5-2.2
					c-0.5-0.6-1.4-0.9-2.8-0.9h-4.8L162.2,98.8z"/>
				<path class="st0" d="M181.6,110.8c-1.1,0-2-0.2-2.7-0.7s-1.3-1.1-1.6-2s-0.4-2-0.1-3.3l1.7-10.1h2.5l-1.6,9.8
					c-0.2,1.2,0,2.2,0.5,2.9c0.5,0.7,1.3,1,2.4,1c0.7,0,1.4-0.2,2.1-0.5c0.7-0.3,1.2-0.8,1.7-1.4s0.8-1.4,0.9-2.3l1.6-9.5h2.6
					l-2.6,15.8h-2.5l0.6-3.8h0.3c-0.7,1.5-1.6,2.5-2.6,3.1C183.8,110.5,182.8,110.8,181.6,110.8z"/>
				<path class="st0" d="M193.4,110.6l2.6-15.8h2.5l-2.6,15.8H193.4z M197.7,92.2c-0.5,0-0.9-0.2-1.2-0.5s-0.4-0.7-0.3-1.2
					c0.1-0.5,0.3-0.9,0.7-1.2c0.4-0.3,0.8-0.5,1.3-0.5c0.5,0,0.9,0.2,1.2,0.5c0.3,0.3,0.4,0.7,0.3,1.2c-0.1,0.5-0.3,0.9-0.7,1.2
					C198.7,92.1,198.2,92.2,197.7,92.2z"/>
				<path class="st0" d="M206.5,89.5l-3.5,21.1h-2.5l3.5-21.1H206.5z"/>
				<path class="st0" d="M213.5,111c-1.7,0-3.1-0.6-4.1-1.7c-1-1.1-1.5-2.7-1.5-4.7c0-1.2,0.2-2.5,0.5-3.7s0.9-2.3,1.6-3.2
					c0.7-1,1.5-1.7,2.5-2.3s2.1-0.8,3.4-0.8c1,0,1.9,0.2,2.4,0.5c0.6,0.3,1,0.7,1.3,1.2c0.3,0.4,0.5,0.8,0.6,1.1h0.2l1.3-7.9h2.6
					l-3.5,21.1h-2.5l0.4-2.4h-0.3c-0.2,0.3-0.5,0.7-0.9,1.2c-0.4,0.4-0.9,0.8-1.6,1.1C215.3,110.8,214.5,111,213.5,111z M214,108.7
					c1,0,1.8-0.2,2.5-0.7c0.7-0.5,1.3-1.1,1.8-1.8s0.8-1.6,1.1-2.5c0.2-0.9,0.4-1.8,0.4-2.7c0-1.2-0.3-2.2-0.9-2.9s-1.5-1.1-2.6-1.1
					c-0.9,0-1.8,0.2-2.5,0.7c-0.7,0.4-1.3,1-1.8,1.8c-0.5,0.7-0.9,1.6-1.1,2.5c-0.2,0.9-0.4,1.8-0.4,2.7c0,1.2,0.3,2.2,0.9,3
					S212.8,108.7,214,108.7z"/>
				<path class="st0" d="M233.7,110.6l3.5-21.1h2.7l-1.5,9.1h11.1l1.5-9.1h2.7l-3.5,21.1h-2.7l1.6-9.6H238l-1.6,9.6H233.7z"/>
				<path class="st0" d="M260.8,111c-1.3,0-2.4-0.3-3.3-1c-0.9-0.7-1.5-1.6-1.9-2.9c-0.4-1.2-0.4-2.7-0.1-4.4
					c0.3-1.7,0.8-3.1,1.6-4.3c0.8-1.2,1.7-2.1,2.8-2.8c1.1-0.7,2.3-1,3.7-1c1,0,1.8,0.2,2.3,0.5c0.5,0.3,0.9,0.7,1.2,1.1
					c0.2,0.4,0.4,0.8,0.6,1.1h0.2l0.4-2.5h2.6l-2.6,15.8h-2.5l0.4-2.4h-0.3c-0.2,0.3-0.6,0.7-1,1.1c-0.4,0.4-0.9,0.8-1.6,1.2
					C262.7,110.8,261.8,111,260.8,111z M261.6,108.7c1,0,1.8-0.3,2.6-0.8s1.4-1.2,1.8-2.1s0.8-1.9,1-3.1c0.2-1.2,0.2-2.2,0-3.1
					c-0.2-0.9-0.6-1.6-1.2-2c-0.6-0.5-1.4-0.7-2.3-0.7c-1,0-1.9,0.3-2.7,0.8c-0.8,0.5-1.4,1.2-1.9,2.1s-0.8,1.9-1,2.9
					c-0.2,1.1-0.2,2.1,0,3s0.6,1.6,1.2,2.2C259.8,108.4,260.6,108.7,261.6,108.7z"/>
				<path class="st0" d="M280.2,111c-1,0-1.8-0.2-2.4-0.5c-0.6-0.3-1-0.7-1.3-1.2c-0.3-0.4-0.5-0.8-0.6-1.1h-0.3l-0.4,2.4h-2.5
					l3.5-21.1h2.5l-1.3,7.8h0.2c0.2-0.3,0.6-0.7,0.9-1.1c0.4-0.4,0.9-0.8,1.5-1.1s1.4-0.5,2.4-0.5c1.2,0,2.2,0.3,3,0.8
					s1.5,1.2,2,2.2c0.5,0.9,0.7,2.1,0.7,3.4c0,1.2-0.2,2.4-0.5,3.6c-0.4,1.2-0.9,2.3-1.6,3.2s-1.5,1.7-2.5,2.3S281.5,111,280.2,111z
					 M279.9,108.7c0.9,0,1.8-0.2,2.5-0.7c0.7-0.5,1.3-1.1,1.8-1.8c0.5-0.8,0.9-1.6,1.1-2.5c0.2-0.9,0.4-1.8,0.4-2.7
					c0-1.2-0.3-2.2-0.9-3c-0.6-0.8-1.5-1.2-2.7-1.2c-1,0-1.8,0.2-2.5,0.7c-0.7,0.4-1.3,1-1.8,1.8s-0.8,1.6-1.1,2.5
					c-0.2,0.9-0.4,1.8-0.4,2.7c0,1.3,0.3,2.3,0.9,3C277.8,108.3,278.7,108.7,279.9,108.7z"/>
				<path class="st0" d="M290.5,110.6l2.6-15.8h2.5l-2.6,15.8H290.5z M294.9,92.2c-0.5,0-0.9-0.2-1.2-0.5s-0.4-0.7-0.3-1.2
					c0.1-0.5,0.3-0.9,0.7-1.2c0.4-0.3,0.8-0.5,1.3-0.5c0.5,0,0.9,0.2,1.2,0.5c0.3,0.3,0.4,0.7,0.3,1.2c-0.1,0.5-0.3,0.9-0.7,1.2
					C295.8,92.1,295.3,92.2,294.9,92.2z"/>
				<path class="st0" d="M306.4,94.8l-0.4,2.2h-8.2l0.4-2.2H306.4z M301.2,91h2.5l-2.6,15.5c-0.1,0.7-0.1,1.2,0.2,1.6
					c0.2,0.3,0.7,0.5,1.3,0.5c0.2,0,0.4,0,0.6-0.1c0.3,0,0.5-0.1,0.7-0.1l0.2,2.2c-0.3,0.1-0.6,0.2-0.9,0.2c-0.3,0.1-0.7,0.1-1,0.1
					c-1.4,0-2.4-0.4-3-1.1c-0.6-0.7-0.9-1.7-0.6-3L301.2,91z"/>
				<path class="st0" d="M312.5,111c-1.1,0-2-0.2-2.8-0.5s-1.4-0.7-1.9-1.3c-0.5-0.6-0.7-1.3-0.8-2.1c0-0.1,0-0.1,0-0.2
					c0-0.1,0-0.1,0-0.2l2.5-0.4c0.1,0.9,0.4,1.5,0.9,1.9s1.3,0.6,2.2,0.6c0.8,0,1.4-0.1,2.1-0.4c0.6-0.2,1.1-0.5,1.5-0.9
					c0.4-0.4,0.6-0.8,0.7-1.3c0.1-0.5,0-0.9-0.3-1.3c-0.3-0.3-0.8-0.6-1.6-0.8l-2.5-0.6c-1.4-0.3-2.4-0.9-3-1.6s-0.8-1.7-0.6-2.8
					c0.2-0.9,0.5-1.7,1.1-2.3s1.4-1.2,2.3-1.6c0.9-0.4,1.9-0.6,3-0.6c1.5,0,2.7,0.3,3.5,0.9c0.8,0.6,1.3,1.4,1.6,2.4
					c0,0.1,0.1,0.2,0.1,0.3c0,0.1,0,0.2,0,0.3l-2.3,0.4c-0.1-0.6-0.4-1.1-0.8-1.5c-0.4-0.4-1.1-0.7-2.1-0.7c-0.7,0-1.3,0.1-1.8,0.3
					s-1,0.5-1.4,0.9s-0.6,0.8-0.7,1.3c-0.1,0.5,0,1,0.4,1.3c0.3,0.3,1,0.6,1.9,0.8l2.3,0.6c1.4,0.3,2.4,0.9,3,1.6
					c0.6,0.7,0.8,1.7,0.6,2.8c-0.1,0.7-0.4,1.3-0.8,1.9c-0.4,0.6-0.9,1.1-1.5,1.5c-0.6,0.4-1.3,0.7-2.1,1S313.4,111,312.5,111z"/>
				<path class="st0" d="M332.8,91.9l0.4-2.4h15.9l-0.4,2.4h-6.6l-3.1,18.7h-2.7l3.1-18.7H332.8z"/>
				<path class="st0" d="M353.4,101.2l-1.6,9.5h-2.5l3.5-21.1h2.5l-1.5,9.1h-0.4c0.5-1,1-1.8,1.6-2.4c0.6-0.6,1.2-1,1.9-1.3
					c0.7-0.3,1.4-0.4,2.2-0.4c1.1,0,2,0.2,2.7,0.7c0.8,0.4,1.3,1.1,1.6,2c0.3,0.9,0.4,2,0.1,3.3l-1.7,10.1h-2.6l1.6-9.8
					c0.2-1.2,0-2.2-0.5-2.9s-1.4-1-2.4-1c-0.7,0-1.4,0.2-2.1,0.5s-1.2,0.8-1.7,1.4C353.8,99.5,353.5,100.2,353.4,101.2z"/>
				<path class="st0" d="M372.3,111c-1.3,0-2.4-0.3-3.3-1c-0.9-0.7-1.5-1.6-1.9-2.9c-0.4-1.2-0.4-2.7-0.1-4.4
					c0.3-1.7,0.8-3.1,1.6-4.3c0.8-1.2,1.7-2.1,2.8-2.8c1.1-0.7,2.3-1,3.7-1c1,0,1.8,0.2,2.3,0.5c0.5,0.3,0.9,0.7,1.2,1.1
					c0.2,0.4,0.4,0.8,0.6,1.1h0.2l0.4-2.5h2.6l-2.6,15.8h-2.5l0.4-2.4h-0.3c-0.2,0.3-0.6,0.7-1,1.1c-0.4,0.4-0.9,0.8-1.6,1.2
					C374.1,110.8,373.3,111,372.3,111z M373.1,108.7c1,0,1.8-0.3,2.6-0.8s1.4-1.2,1.8-2.1s0.8-1.9,1-3.1c0.2-1.2,0.2-2.2,0-3.1
					c-0.2-0.9-0.6-1.6-1.2-2c-0.6-0.5-1.4-0.7-2.3-0.7c-1,0-1.9,0.3-2.7,0.8c-0.8,0.5-1.4,1.2-1.9,2.1s-0.8,1.9-1,2.9
					c-0.2,1.1-0.2,2.1,0,3s0.6,1.6,1.2,2.2C371.3,108.4,372.1,108.7,373.1,108.7z"/>
				<path class="st0" d="M393.1,94.8l-0.4,2.2h-8.2l0.4-2.2H393.1z M387.9,91h2.5l-2.6,15.5c-0.1,0.7-0.1,1.2,0.2,1.6
					c0.2,0.3,0.7,0.5,1.3,0.5c0.2,0,0.4,0,0.6-0.1c0.3,0,0.5-0.1,0.7-0.1l0.2,2.2c-0.3,0.1-0.6,0.2-0.9,0.2c-0.3,0.1-0.7,0.1-1,0.1
					c-1.4,0-2.4-0.4-3-1.1c-0.6-0.7-0.9-1.7-0.6-3L387.9,91z"/>
				<path class="st0" d="M402.2,110.6l3.5-21.1h2.7l-3.1,18.7h9.8l-0.4,2.4H402.2z"/>
				<path class="st0" d="M424.2,111c-1.3,0-2.4-0.3-3.3-1c-0.9-0.7-1.5-1.6-1.9-2.9c-0.4-1.2-0.4-2.7-0.1-4.4
					c0.3-1.7,0.8-3.1,1.6-4.3c0.8-1.2,1.7-2.1,2.8-2.8c1.1-0.7,2.3-1,3.7-1c1,0,1.8,0.2,2.3,0.5c0.5,0.3,0.9,0.7,1.2,1.1
					c0.2,0.4,0.4,0.8,0.6,1.1h0.2l0.4-2.5h2.6l-2.6,15.8h-2.5l0.4-2.4h-0.3c-0.2,0.3-0.6,0.7-1,1.1c-0.4,0.4-0.9,0.8-1.6,1.2
					C426,110.8,425.2,111,424.2,111z M425,108.7c1,0,1.8-0.3,2.6-0.8s1.4-1.2,1.8-2.1s0.8-1.9,1-3.1c0.2-1.2,0.2-2.2,0-3.1
					c-0.2-0.9-0.6-1.6-1.2-2c-0.6-0.5-1.4-0.7-2.3-0.7c-1,0-1.9,0.3-2.7,0.8c-0.8,0.5-1.4,1.2-1.9,2.1s-0.8,1.9-1,2.9
					c-0.2,1.1-0.2,2.1,0,3s0.6,1.6,1.2,2.2C423.2,108.4,424,108.7,425,108.7z"/>
				<path class="st0" d="M441.5,111c-1.1,0-2-0.2-2.8-0.5s-1.4-0.7-1.9-1.3c-0.5-0.6-0.7-1.3-0.8-2.1c0-0.1,0-0.1,0-0.2
					c0-0.1,0-0.1,0-0.2l2.5-0.4c0.1,0.9,0.4,1.5,0.9,1.9s1.3,0.6,2.2,0.6c0.8,0,1.4-0.1,2.1-0.4c0.6-0.2,1.1-0.5,1.5-0.9
					c0.4-0.4,0.6-0.8,0.7-1.3c0.1-0.5,0-0.9-0.3-1.3c-0.3-0.3-0.8-0.6-1.6-0.8l-2.5-0.6c-1.4-0.3-2.4-0.9-3-1.6s-0.8-1.7-0.6-2.8
					c0.2-0.9,0.5-1.7,1.1-2.3s1.4-1.2,2.3-1.6c0.9-0.4,1.9-0.6,3-0.6c1.5,0,2.7,0.3,3.5,0.9c0.8,0.6,1.3,1.4,1.6,2.4
					c0,0.1,0.1,0.2,0.1,0.3c0,0.1,0,0.2,0,0.3l-2.3,0.4c-0.1-0.6-0.4-1.1-0.8-1.5c-0.4-0.4-1.1-0.7-2.1-0.7c-0.7,0-1.3,0.1-1.8,0.3
					s-1,0.5-1.4,0.9s-0.6,0.8-0.7,1.3c-0.1,0.5,0,1,0.4,1.3c0.3,0.3,1,0.6,1.9,0.8l2.3,0.6c1.4,0.3,2.4,0.9,3,1.6
					c0.6,0.7,0.8,1.7,0.6,2.8c-0.1,0.7-0.4,1.3-0.8,1.9c-0.4,0.6-0.9,1.1-1.5,1.5c-0.6,0.4-1.3,0.7-2.1,1S442.4,111,441.5,111z"/>
				<path class="st0" d="M460.2,94.8l-0.4,2.2h-8.2l0.4-2.2H460.2z M455.1,91h2.5l-2.6,15.5c-0.1,0.7-0.1,1.2,0.2,1.6
					c0.2,0.3,0.7,0.5,1.3,0.5c0.2,0,0.4,0,0.6-0.1c0.3,0,0.5-0.1,0.7-0.1l0.2,2.2c-0.3,0.1-0.6,0.2-0.9,0.2c-0.3,0.1-0.7,0.1-1,0.1
					c-1.4,0-2.4-0.4-3-1.1c-0.6-0.7-0.9-1.7-0.6-3L455.1,91z"/>
			</g>
		</g>
	</g>
</g>
<g id="graphics">
	<g>
		<linearGradient id="SVGID_1_" gradientUnits="userSpaceOnUse" x1="23.4364" y1="53.342" x2="125.9759" y2="53.342">
			<stop  offset="0" style="stop-color:#2B88D9"/>
			<stop  offset="1" style="stop-color:#26E0F5"/>
		</linearGradient>
		<path class="st3" d="M125.1,44.8c-1.5-2.5-3.4-3.9-6-5.4L83.8,19c-5.6-3.2-12.5-3.2-18.1,0L30.3,39.4c-2.8,1.6-6.5,4.6-6.8,8.3
			c-0.7,8.9,10.8,14.5,18.5,18.6c13.2,7,21.8,11.1,28.2,17.7c1.4,1.5,3.7,4,4.5,6.1c0.8-2,3.1-4.6,4.5-6.1
			c6.5-6.6,15-10.7,28.2-17.7c7.6-4,18.7-9.1,18.5-18.6C126,47,125.6,45.6,125.1,44.8z M74.7,69.6c-6.2,0-11.2-5-11.2-11.2
			s5-11.2,11.2-11.2c6.2,0,11.2,5,11.2,11.2S80.9,69.6,74.7,69.6z"/>
		
			<linearGradient id="SVGID_00000110434189838471780420000012579744235970553769_" gradientUnits="userSpaceOnUse" x1="87.182" y1="40.5009" x2="53.1514" y2="143.0716">
			<stop  offset="0" style="stop-color:#39B54A"/>
			<stop  offset="1" style="stop-color:#ACDF23"/>
		</linearGradient>
		<path style="fill:url(#SVGID_00000110434189838471780420000012579744235970553769_);" d="M107.6,72.2c-15.7,8.4-26.8,12.2-31,25.8
			c-0.5,1.6-1.2,3.3-1.8,6.6c-0.6-3.3-1.3-5-1.8-6.6c-4.3-13.5-15.3-17.4-31-25.8c-16.3-8.7-19.8-13-20.4-14.8v38.5
			c0,6.4,3.5,12.4,9,15.7L65.8,132c1.3,0.7,2.4,1.3,3.7,1.7c-0.4-1.5-0.9-3.1-1.5-4.8c-11-30.9-30.6-38.5-30.6-38.5
			s9.1,0.7,22.1,14.2c6.3,6.5,11.2,14.3,15.2,22.4c0,0,8.7-15.7,15.2-22.4C102.9,91,112,90.3,112,90.3s-19.5,7.6-30.6,38.5
			c-0.6,1.7-1.1,3.3-1.5,4.8c1.3-0.4,2.4-1,3.7-1.7l35.3-20.4c5.6-3.2,9-9.2,9-15.7V57.4C127.3,59.2,123.9,63.6,107.6,72.2z"/>
	</g>
</g>
</svg>
